<?xml version="1.0" encoding="UTF-8" standalone="no"?>
<!-- Generated by IcoMoon.io -->

<svg
   xmlns:dc="http://purl.org/dc/elements/1.1/"
   xmlns:cc="http://creativecommons.org/ns#"
   xmlns:rdf="http://www.w3.org/1999/02/22-rdf-syntax-ns#"
   xmlns:svg="http://www.w3.org/2000/svg"
   xmlns="http://www.w3.org/2000/svg"
   xmlns:sodipodi="http://sodipodi.sourceforge.net/DTD/sodipodi-0.dtd"
   xmlns:inkscape="http://www.inkscape.org/namespaces/inkscape"
   version="1.1"
   width="24"
   height="24"
   viewBox="0 0 24 24"
   id="svg6"
   sodipodi:docname="blue_logo.svg"
   inkscape:version="0.92.2 (5c3e80d, 2017-08-06)">
  <metadata
     id="metadata12">
    <rdf:RDF>
      <cc:Work
         rdf:about="">
        <dc:format>image/svg+xml</dc:format>
        <dc:type
           rdf:resource="http://purl.org/dc/dcmitype/StillImage" />
        <dc:title>check</dc:title>
      </cc:Work>
    </rdf:RDF>
  </metadata>
  <defs
     id="defs10" />
  <sodipodi:namedview
     pagecolor="#ffffff"
     bordercolor="#666666"
     borderopacity="1"
     objecttolerance="10"
     gridtolerance="10"
     guidetolerance="10"
     inkscape:pageopacity="0"
     inkscape:pageshadow="2"
     inkscape:window-width="1920"
     inkscape:window-height="997"
     id="namedview8"
     showgrid="false"
     inkscape:zoom="9.8333333"
     inkscape:cx="-16.627119"
     inkscape:cy="10.753525"
     inkscape:window-x="0"
     inkscape:window-y="0"
     inkscape:window-maximized="1"
     inkscape:current-layer="svg6" />
  <title
     id="title2">check</title>
  <g
     id="g4593"
     transform="matrix(0.13887191,0,0,0.13887191,-4.7225031,-13.315449)"
     style="fill-opacity:1;fill:#246c9c">
    <g
       transform="matrix(1,0,0,1.0148628,11.533264,25.112476)"
       inkscape:label="text3739"
       id="text3739"
       style="font-style:normal;font-weight:normal;font-size:20.4063015px;line-height:1.25;font-family:sans-serif;letter-spacing:0px;word-spacing:0px;fill-opacity:1;stroke:none;stroke-width:1.09319496;fill:#246c9c"
       aria-label="D">
      <path
         sodipodi:nodetypes="csscsssssccccsssccscc"
         inkscape:connector-curvature="0"
         id="path3758"
         style="font-style:normal;font-variant:normal;font-weight:normal;font-stretch:normal;font-size:209.89372253px;font-family:Lato;-inkscape-font-specification:'Lato, Normal';font-variant-ligatures:normal;font-variant-caps:normal;font-variant-numeric:normal;font-feature-settings:normal;text-align:start;writing-mode:lr-tb;text-anchor:start;fill-opacity:1;stroke-width:1.09319496;fill:#246c9c"
         d="m 114.71294,212.30406 v 0 c 0,0 7.44408,-1.32933 14.02075,-3.98798 6.57667,-2.65865 12.17384,-6.47172 16.7915,-11.43921 4.61766,-5.03745 8.18585,-11.19433 10.70458,-18.47065 2.51873,-7.27631 3.77809,-15.53213 3.77809,-24.76746 0,-9.23532 -1.25936,-17.49114 -3.77809,-24.76746 -2.51873,-7.27631 -6.08692,-13.43319 -10.70458,-18.47064 -4.61766,-5.03745 -10.21483,-8.88551 -16.7915,-11.544158 -6.57667,-2.658654 -44.391676,-1.315286 -52.507566,-1.315286 V 81.064559 c 11.0544,0 51.598026,-0.853616 60.693426,2.784542 9.16536,3.568193 17.00139,8.675606 23.50809,15.322241 6.50671,6.576668 11.54416,14.482668 15.11235,23.717988 3.56819,9.23533 5.35229,19.48514 5.35229,30.74943 0,11.2643 -1.7841,21.51411 -5.35229,30.74943 -3.56819,9.23533 -8.60564,17.14132 -15.11235,23.71799 -6.5067,6.57667 -14.34273,11.68409 -23.50809,15.32225 -9.0954,3.56819 -22.20661,5.35229 -22.20661,5.35229 v 0 z" />
    </g>
    <g
       transform="matrix(1.0147238,0,0,0.99388173,0.14213836,29.286708)"
       id="text3747"
       style="font-style:normal;font-weight:normal;font-size:20.4063015px;line-height:1.25;font-family:sans-serif;letter-spacing:0px;word-spacing:0px;fill-opacity:1;stroke:none;stroke-width:1.09319496;fill:#246c9c"
       aria-label="L">
      <path
         sodipodi:nodetypes="ccccccc"
         inkscape:label="path3755"
         inkscape:connector-curvature="0"
         id="path3755"
         style="font-style:normal;font-variant:normal;font-weight:normal;font-stretch:normal;font-size:209.89372253px;font-family:Lato;-inkscape-font-specification:'Lato, Normal';font-variant-ligatures:normal;font-variant-caps:normal;font-variant-numeric:normal;font-feature-settings:normal;text-align:start;writing-mode:lr-tb;text-anchor:start;fill-opacity:1;stroke-width:1.09319496;fill:#246c9c"
         d="m 67.820204,211.76952 38.874646,0.53454 V 229.4104 L 47.56546,228.87586 V 78.48701 h 20.254744 z" />
    </g>
  </g>
</svg>
